#!OML:ASF E:/inclinewalkrobotboard/Project1/Captureday1/Session1/subject1.ASF
:FULLY-SPECIFIED
:DEGREES
388
root 0 0 0 16.03563486707004 42.16617550507277 -0.6543349915670138
lowerback -10.926333581263146 -4.5020605494075365 -4.480289156673742
upperback -11.750282031615363 -5.595803397377024 8.934499193293723
thorax -5.421540455297173 -2.1123290905141987 12.17152035837399
lowerneck -3.005119121937873 -9.822214992914992 -8.471411097723035
upperneck 32.77991577611131 -12.32248138351913 0.1786472468846294
head 11.906698540083317 -6.378645467838799 -0.1408123464231701
rclavicle -4.4873933196354255E-15 3.914245353075741E-15
rhumerus 163.0301939570151 5.718134940776505 -193.99362675489405
rradius 17.210935192399955
rwrist 82.42173208488825
rhand -17.12144997157439 7.890011880581488
rfingers 7.125020000000011
rthumb 9.073922868384818 -22.011756887789502
lclavicle 1.5875996121781854E-15 -5.074652799789822E-15
lhumerus 85.25383013492458 32.564023487922015 16.543840262629196
lradius 50.588078849433415
lwrist -17.198053379134482
lhand -7.9277383593191315 11.67486504545592
lfingers 7.125019999999989
lthumb 17.935089273301813 40.52507235151051
rfemur 158.12212858466503 -213.6365218199432 -185.4719273999383
rtibia 62.83150712279934
rfoot -53.52714850051186 -24.29974287461913
rtoes 60.819835887310944
lfemur -88.60704035452042 22.810045823369457 -51.80601475129277
ltibia 75.79941721127432
lfoot -16.504017099772955 32.75800002335587
ltoes 10.666173105230785
389
root 0 0 0 16.01060133192152 42.18684091551299 -0.6409122193568066
lowerback -10.913076938739245 -4.502212203535585 -4.482468592646914
upperback -11.743633785391436 -5.595595447798558 8.932281839409455
thorax -5.422280531784146 -2.1116669854077568 12.170022081132007
lowerneck -3.0049350247038644 -9.82191048987872 -8.468870130169591
upperneck 32.781091015026014 -12.32085301028079 0.172603651708366
head 11.90672467193233 -6.378323551915088 -0.1429528902964725
rclavicle -4.500556711160088E-15 3.92745377734656E-15
rhumerus 162.93552079009478 5.727616470896482 -194.04804005678886
rradius 17.127068980372997
rwrist 82.56221006902744
rhand -17.119890129198613 7.8876664944951305
rfingers 7.125020000000012
rthumb 9.075003221573663 -22.014586577612114
lclavicle 1.6138194138206468E-15 -5.007635531418141E-15
lhumerus 85.25838732411526 32.59716948372811 16.537163393657895
lradius 50.481889064814055
lwrist -17.252904732003415
lhand -8.012503776729051 11.711826686730472
lfingers 7.125019999999988
lthumb 17.85364708665108 40.575635849133846
rfemur 157.96889459769804 -213.50581055588563 -185.38719050324931
rtibia 62.652189034083094
rfoot -53.84476102352589 -24.200398978410565
rtoes 60.88613656686343
lfemur -88.62041187309674 22.805903259450382 -51.84087884003134
ltibia 75.80204556150542
lfoot -16.36231483343048 32.75189295788406
ltoes 10.61861056032953
390
root 0 0 0 15.983463764050494 42.20765301854537 -0.626502158923719
lowerback -10.899187898494958 -4.50265464886534 -4.484838515139278
upperback -11.736700933982354 -5.595776475453846 8.930142741031775
thorax -5.423086051518868 -2.1111689104336824 12.168726373773765
lowerneck -3.004613419715305 -9.821600444709354 -8.466452049664941
upperneck 32.78211633856047 -12.319189865884898 0.16678122003487328
head 11.90668479486353 -6.37799128961892 -0.1450225297911849
rclavicle -4.5107632738728544E-15 3.9436161436195824E-15
rhumerus 162.84396060045634 5.7429971871011105 -194.10173092289983
rradius 17.05650094685791
rwrist 82.67860006631165
rhand -17.11887414145797 7.887783892911091
rfingers 7.125020000000012
rthumb 9.075653846671361 -22.014633871202413
lclavicle 1.643329166216935E-15 -4.9431105734298495E-15
lhumerus 85.2575213943786 32.625028912422124 16.531101928814596
lradius 50.38584195504643
lwrist -17.302480012299654
lhand -8.087659289507338 11.745859722820127
lfingers 7.125019999999988
lthumb 17.781431215047107 40.62169505488822
rfemur 157.83397407601115 -213.39065269223642 -185.31031135666308
rtibia 62.48348014391049
rfoot -54.16028210940774 -24.09581356690788
rtoes 60.932452110150706
lfemur -88.63452559722944 22.801467766263343 -51.88411021334274
ltibia 75.79918590481974
lfoot -16.196852023337957 32.747450549680465
ltoes 10.562518727526244
391
root 0 0 0 15.954973712128693 42.2281179311572 -0.6114351551492021
lowerback -10.884962663615878 -4.5033100134902835 -4.487352551280345
upperback -11.729620153833629 -5.596248042517227 8.928063965404876
thorax -5.423935350021706 -2.1107958939623455 12.16758856951732
lowerneck -3.0042123001969463 -9.821277102673221 -8.464142151268806
upperneck 32.782992141060554 -12.317507460237243 0.16121094321076423
head 11.906588132731018 -6.377647382187646 -0.14700914856572234
rclavicle -4.518580463628431E-15 3.962099567838574E-15
rhumerus 162.75518720414712 5.763145743241548 -194.15555163393122
rradius 16.996494739673786
rwrist 82.7754221297575
rhand -17.118310194517726 7.889837735964214
rfingers 7.125020000000012
rthumb 9.075943952051224 -22.01249539352153
lclavicle 1.6751450957266441E-15 -4.880962142161661E-15
lhumerus 85.2527630456979 32.64874786659753 16.52561775376896
lradius 50.298518604823485
lwrist -17.347430534493224
lhand -8.154562033039102 11.777392288976753
lfingers 7.125019999999988
lthumb 17.71713975876216 40.66391839501465
rfemur 157.71468011902957 -213.28872815808438 -185.24036034751904
rtibia 62.32416733383473
rfoot -54.472344422987064 -23.987576101031316
rtoes 60.96262678388146
lfemur -88.64916334424633 22.79687377839289 -51.933304231143595
ltibia 75.79221181552447
lfoot -16.014318506489353 32.744246242150794
ltoes 10.500309231342262
392
root 0 0 0 15.925714961311934 42.24787267504499 -0.5959695604346038
lowerback -10.870626772581215 -4.504116470734806 -4.489973182941174
upperback -11.722494507570575 -5.596931506596478 8.926030647466929
thorax -5.4248105825032775 -2.110516683579567 12.166571886313022
lowerneck -3.0037771138470584 -9.820934713109729 -8.461926364565919
upperneck 32.78372459690411 -12.31581746450562 0.15590966383010008
head 11.906443905127114 -6.377290972714728 -0.14890580515939167
rclavicle -4.524422853600624E-15 3.982344756744946E-15
rhumerus 162.66896714574744 5.787011030266491 -194.20988033661874
rradius 16.944823206931154
rwrist 82.85645422506062
rhand -17.118099258692087 7.893372871428883
rfingers 7.125020000000012
rthumb 9.07595302546352 -22.00868285082849
lclavicle 1.7085716353392841E-15 -4.82101577822537E-15
lhumerus 85.24517627199126 32.66925042382839 16.52068854732712
lradius 50.21858284013846
lwrist -17.388404955561334
lhand -8.214487511328713 11.806816209917017
lfingers 7.125019999999987
lthumb 17.659548542089215 40.7029168933649
rfemur 157.60860720353068 -213.1979557190981 -185.17645210477326
rtibia 62.17301673366701
rfoot -54.780199123514706 -23.876891056908885
rtoes 60.97987450373972
lfemur -88.66413633342273 22.792213288232517 -51.98653535626462
ltibia 75.78218725150042
lfoot -15.820235773408672 32.74198216463331
ltoes 10.433983743229263
